<?xml version="1.0" standalone="no"?>
<!DOCTYPE svg PUBLIC "-//W3C//DTD SVG 20010904//EN"
 "http://www.w3.org/TR/2001/REC-SVG-20010904/DTD/svg10.dtd">
<svg version="1.0" xmlns="http://www.w3.org/2000/svg"
 width="300.000000pt" height="300.000000pt" viewBox="0 0 300.000000 300.000000"
 preserveAspectRatio="xMidYMid meet">
<metadata>
Created by potrace 1.14, written by Peter Selinger 2001-2017
</metadata>
<g transform="translate(0.000000,300.000000) scale(0.100000,-0.100000)"
fill="#000000" stroke="none">
<path d="M1291 2985 c-192 -31 -326 -75 -491 -161 -264 -138 -505 -383 -640
-653 -172 -344 -204 -722 -95 -1106 35 -123 149 -350 231 -458 225 -298 536
-496 911 -579 142 -31 444 -31 586 0 147 32 268 76 397 143 403 208 680 576
782 1036 31 142 31 444 0 586 -66 300 -206 560 -413 766 -214 214 -494 361
-799 418 -115 21 -362 26 -469 8z m1021 -774 l33 -29 3 -369 c3 -401 1 -423
-54 -474 -14 -13 -168 -89 -342 -169 l-317 -145 -41 -168 c-44 -175 -57 -205
-101 -234 -25 -16 -59 -18 -374 -18 l-348 0 -30 29 -31 30 0 756 c0 821 -2
788 54 810 11 5 357 9 768 9 l748 1 32 -29z"/>
</g>
</svg>
